<svg width="24" height="24" viewBox="0 0 24 24" fill="none" xmlns="http://www.w3.org/2000/svg">
<path d="M12.0001 1.99989C17.5101 1.99989 22.0001 6.47989 22.0001 11.9999C22.0001 17.5099 17.5101 21.9999 12.0001 21.9999C6.48012 21.9999 2.00012 17.5099 2.00012 11.9999C2.00012 6.47989 6.48012 1.99989 12.0001 1.99989ZM16.0001 10.0194C15.7001 9.72967 15.2305 9.73032 14.9406 10.0302L12.0001 12.9804L9.05969 10.0302C8.76976 9.73032 8.29012 9.72968 8.00012 10.0194C7.70012 10.3194 7.70012 10.79 8.00012 11.08L11.4698 14.5702C11.6098 14.7102 11.8001 14.7899 12.0001 14.7899C12.2001 14.7899 12.3904 14.7102 12.5304 14.5702L16.0001 11.08C16.1501 10.94 16.2198 10.7495 16.2198 10.5595C16.2197 10.3596 16.15 10.1693 16.0001 10.0194Z" fill="black"/>
</svg>
