<svg width="25" height="24" viewBox="0 0 25 24" fill="none" xmlns="http://www.w3.org/2000/svg">
<path fill-rule="evenodd" clip-rule="evenodd" d="M17.1143 3C18.4553 3 19.7453 3.53 20.6943 4.481C21.6443 5.43 22.1753 6.71 22.1753 8.05V15.95C22.1753 18.74 19.9053 21 17.1143 21H7.23529C4.44429 21 2.17529 18.74 2.17529 15.95V8.05C2.17529 5.26 4.43429 3 7.23529 3H17.1143ZM18.7053 9.54L18.7853 9.46C19.0243 9.17 19.0243 8.75 18.7743 8.46C18.6353 8.311 18.4443 8.22 18.2453 8.2C18.0353 8.189 17.8353 8.26 17.6843 8.4L13.1753 12C12.5953 12.481 11.7643 12.481 11.1753 12L6.67529 8.4C6.36429 8.17 5.93429 8.2 5.67529 8.47C5.40529 8.74 5.37529 9.17 5.60429 9.47L5.73529 9.6L10.2853 13.15C10.8453 13.59 11.5243 13.83 12.2353 13.83C12.9443 13.83 13.6353 13.59 14.1943 13.15L18.7053 9.54Z" fill="white"/>
</svg>
